<?xml version="1.0" encoding="utf-8"?>
<!-- Generator: Adobe Illustrator 18.0.0, SVG Export Plug-In . SVG Version: 6.00 Build 0)  -->
<!DOCTYPE svg PUBLIC "-//W3C//DTD SVG 1.1//EN" "http://www.w3.org/Graphics/SVG/1.1/DTD/svg11.dtd">
<svg version="1.1" id="Layer_1" xmlns="http://www.w3.org/2000/svg" xmlns:xlink="http://www.w3.org/1999/xlink" x="0px" y="0px"
	 viewBox="0 0 309 348" enable-background="new 0 0 309 348" xml:space="preserve">
<g>
	<g>
		<path fill="#383838" d="M26.9,327.9c0-102.7,0-205,0-307.9c1.7-0.1,3.4-0.2,5.2-0.2c50,0,100-0.1,150,0.1
			c14.9,0.1,29.4,2.8,43.3,8.7c28,11.9,41.6,33.5,42.7,63.4c1.2,32.6-13,55.9-43,69.9c5.8,2.2,11.4,3.8,16.7,6.3
			c21.9,10.2,33.4,28.4,38,51.3c4.5,22.1,3.1,43.8-8.1,64c-11.3,20.4-30.2,30.8-51.5,37.7c-15.8,5.1-32.2,6.9-48.7,7
			c-46.7,0.2-93.3,0.1-140,0.1C30.1,328.2,28.8,328,26.9,327.9z M81.4,188.2c0,32,0,63.1,0,94.4c1,0.1,1.8,0.4,2.6,0.4
			c33.3,0,66.6,0.3,99.9-0.3c22.2-0.4,38.3-14.6,42.1-36.8c2.6-15.3,1.4-30.4-9.6-42.8c-10.2-11.4-23.8-14.8-38.3-14.9
			c-30.3-0.1-60.6,0-90.9,0C85.3,188.2,83.5,188.2,81.4,188.2z M128.6,148.4c0-0.2,0-0.4,0-0.6c16.1,0,32.3,0.8,48.4-0.2
			c17.9-1.1,31.8-13.8,35.3-30.9c1.8-9.1,1.3-18.2-1-27.2c-2.7-10.5-9.2-17.9-19.4-21.1c-6.9-2.2-14.3-3.7-21.5-3.8
			c-28-0.4-56,0-83.9-0.1c-4,0-5.5,1-5.4,5.3c0.2,24.5,0.2,49,0,73.5c0,3.9,1.1,5.2,5,5.2C100.3,148.3,114.4,148.4,128.6,148.4z"/>
	</g>
</g>
</svg>
